WorkSans-Black.ufo
<glyph name="exclam" format="2">
  <advance width="321"/>
  <unicode hex="0021"/>
  <outline>
    <contour>
      <point x="40" y="660" type="line"/>
      <point x="40" y="496" type="line"/>
      <point x="64" y="220" type="line"/>
      <point x="256" y="220" type="line"/>
      <point x="280" y="496" type="line"/>
      <point x="280" y="660" type="line"/>
    </contour>
    <contour>
      <point x="43" y="89" type="curve" smooth="yes"/>
      <point x="43" y="28"/>
      <point x="86" y="-7"/>
      <point x="160" y="-7" type="curve" smooth="yes"/>
      <point x="234" y="-7"/>
      <point x="277" y="28"/>
      <point x="277" y="89" type="curve" smooth="yes"/>
      <point x="277" y="150"/>
      <point x="234" y="185"/>
      <point x="160" y="185" type="curve" smooth="yes"/>
      <point x="86" y="185"/>
      <point x="43" y="150"/>
    </contour>
  </outline>
</glyph>
<glyph name="numbersign" format="2">
  <advance width="721"/>
  <unicode hex="0023"/>
  <outline>
    <contour>
      <point x="456" y="660" type="line"/>
      <point x="352" y="0" type="line"/>
      <point x="499" y="0" type="line"/>
      <point x="604" y="660" type="line"/>
    </contour>
    <contour>
      <point x="30" y="271" type="line"/>
      <point x="30" y="142" type="line"/>
      <point x="649" y="142" type="line"/>
      <point x="649" y="271" type="line"/>
    </contour>
    <contour>
      <point x="203" y="660" type="line"/>
      <point x="99" y="0" type="line"/>
      <point x="247" y="0" type="line"/>
      <point x="351" y="660" type="line"/>
    </contour>
    <contour>
      <point x="72" y="518" type="line"/>
      <point x="72" y="389" type="line"/>
      <point x="691" y="389" type="line"/>
      <point x="691" y="518" type="line"/>
    </contour>
  </outline>
</glyph>
<glyph name="percent" format="2">
  <advance width="992"/>
  <unicode hex="0025"/>
  <outline>
    <contour>
      <point x="560" y="182" type="curve" smooth="yes"/>
      <point x="560" y="66"/>
      <point x="642" y="-10"/>
      <point x="764" y="-10" type="curve" smooth="yes"/>
      <point x="886" y="-10"/>
      <point x="968" y="66"/>
      <point x="968" y="182" type="curve" smooth="yes"/>
      <point x="968" y="298"/>
      <point x="886" y="374"/>
      <point x="764" y="374" type="curve" smooth="yes"/>
      <point x="642" y="374"/>
      <point x="560" y="298"/>
    </contour>
    <contour>
      <point x="24" y="478" type="curve" smooth="yes"/>
      <point x="24" y="362"/>
      <point x="106" y="286"/>
      <point x="228" y="286" type="curve" smooth="yes"/>
      <point x="350" y="286"/>
      <point x="432" y="362"/>
      <point x="432" y="478" type="curve" smooth="yes"/>
      <point x="432" y="594"/>
      <point x="350" y="670"/>
      <point x="228" y="670" type="curve" smooth="yes"/>
      <point x="106" y="670"/>
      <point x="24" y="594"/>
    </contour>
    <contour>
      <point x="269" y="478" type="curve" smooth="yes"/>
      <point x="269" y="450"/>
      <point x="254" y="434"/>
      <point x="228" y="434" type="curve" smooth="yes"/>
      <point x="202" y="434"/>
      <point x="187" y="450"/>
      <point x="187" y="478" type="curve" smooth="yes"/>
      <point x="187" y="506"/>
      <point x="202" y="522"/>
      <point x="228" y="522" type="curve" smooth="yes"/>
      <point x="254" y="522"/>
      <point x="269" y="506"/>
    </contour>
    <contour>
      <point x="805" y="182" type="curve" smooth="yes"/>
      <point x="805" y="154"/>
      <point x="790" y="138"/>
      <point x="764" y="138" type="curve" smooth="yes"/>
      <point x="738" y="138"/>
      <point x="723" y="154"/>
      <point x="723" y="182" type="curve" smooth="yes"/>
      <point x="723" y="210"/>
      <point x="738" y="226"/>
      <point x="764" y="226" type="curve" smooth="yes"/>
      <point x="790" y="226"/>
      <point x="805" y="210"/>
    </contour>
    <contour>
      <point x="337" y="0" type="line"/>
      <point x="823" y="661" type="line"/>
      <point x="657" y="661" type="line"/>
      <point x="171" y="0" type="line"/>
    </contour>
  </outline>
</glyph>
<glyph name="period" format="2">
  <advance width="306"/>
  <unicode hex="002E"/>
  <anchor x="30" y="99" name="_center"/>
  <outline>
    <contour>
      <point x="30" y="99" type="curve" smooth="yes"/>
      <point x="30" y="31"/>
      <point x="75" y="-8"/>
      <point x="153" y="-8" type="curve" smooth="yes"/>
      <point x="231" y="-8"/>
      <point x="276" y="31"/>
      <point x="276" y="99" type="curve" smooth="yes"/>
      <point x="276" y="167"/>
      <point x="231" y="206"/>
      <point x="153" y="206" type="curve" smooth="yes"/>
      <point x="75" y="206"/>
      <point x="30" y="167"/>
    </contour>
  </outline>
</glyph>
<glyph name="zero" format="2">
  <advance width="658"/>
  <unicode hex="0030"/>
  <outline>
    <contour>
      <point x="622" y="330" type="curve" smooth="yes"/>
      <point x="622" y="557"/>
      <point x="529" y="670"/>
      <point x="329" y="670" type="curve" smooth="yes"/>
      <point x="129" y="670"/>
      <point x="36" y="557"/>
      <point x="36" y="330" type="curve" smooth="yes"/>
      <point x="36" y="103"/>
      <point x="129" y="-10"/>
      <point x="329" y="-10" type="curve" smooth="yes"/>
      <point x="529" y="-10"/>
      <point x="622" y="103"/>
    </contour>
    <contour>
      <point x="264" y="330" type="curve" smooth="yes"/>
      <point x="264" y="460"/>
      <point x="278" y="495"/>
      <point x="329" y="495" type="curve" smooth="yes"/>
      <point x="380" y="495"/>
      <point x="394" y="460"/>
      <point x="394" y="330" type="curve" smooth="yes"/>
      <point x="394" y="200"/>
      <point x="380" y="165"/>
      <point x="329" y="165" type="curve" smooth="yes"/>
      <point x="278" y="165"/>
      <point x="264" y="200"/>
    </contour>
  </outline>
</glyph>
<glyph name="A" format="2">
  <advance width="689"/>
  <unicode hex="0041"/>
  <anchor x="574" y="0" name="bottomC"/>
  <anchor x="344" y="660" name="top"/>
  <anchor x="699" y="0" name="ogonek"/>
  <anchor x="344" y="0" name="bottom"/>
  <outline>
    <contour>
      <point x="222" y="0" type="line"/>
      <point x="315" y="379" type="line"/>
      <point x="341" y="491" type="line"/>
      <point x="344" y="491" type="line"/>
      <point x="371" y="379" type="line"/>
      <point x="461" y="0" type="line"/>
      <point x="699" y="0" type="line"/>
      <point x="484" y="660" type="line"/>
      <point x="204" y="660" type="line"/>
      <point x="-10" y="0" type="line"/>
    </contour>
    <contour>
      <point x="534" y="126" type="line"/>
      <point x="534" y="271" type="line"/>
      <point x="157" y="271" type="line"/>
      <point x="157" y="126" type="line"/>
    </contour>
  </outline>
</glyph>
<glyph name="N" format="2">
  <advance width="746"/>
  <unicode hex="004E"/>
  <anchor x="530" y="0" name="bottomC"/>
  <anchor x="373" y="660" name="top"/>
  <anchor x="696" y="0" name="ogonek"/>
  <anchor x="374" y="0" name="bottom"/>
  <outline>
    <contour>
      <point x="494" y="660" type="line"/>
      <point x="494" y="415" type="line"/>
      <point x="498" y="279" type="line"/>
      <point x="496" y="279" type="line"/>
      <point x="460" y="359" type="line"/>
      <point x="302" y="660" type="line"/>
      <point x="50" y="660" type="line"/>
      <point x="50" y="0" type="line"/>
      <point x="252" y="0" type="line"/>
      <point x="252" y="245" type="line"/>
      <point x="248" y="381" type="line"/>
      <point x="250" y="381" type="line"/>
      <point x="286" y="300" type="line"/>
      <point x="444" y="0" type="line"/>
      <point x="696" y="0" type="line"/>
      <point x="696" y="660" type="line"/>
    </contour>
  </outline>
</glyph>
<glyph name="X" format="2">
  <advance width="704"/>
  <unicode hex="0058"/>
  <anchor x="568" y="0" name="bottomC"/>
  <anchor x="347" y="660" name="top"/>
  <anchor x="713" y="0" name="ogonek"/>
  <anchor x="347" y="0" name="bottom"/>
  <outline>
    <contour>
      <point x="440" y="660" type="line"/>
      <point x="301" y="365" type="line"/>
      <point x="251" y="373" type="line"/>
      <point x="2" y="0" type="line"/>
      <point x="265" y="0" type="line"/>
      <point x="385" y="255" type="line"/>
      <point x="432" y="253" type="line"/>
      <point x="694" y="660" type="line"/>
    </contour>
    <contour>
      <point x="10" y="660" type="line"/>
      <point x="262" y="265" type="line"/>
      <point x="300" y="260" type="line"/>
      <point x="432" y="0" type="line"/>
      <point x="713" y="0" type="line"/>
      <point x="463" y="366" type="line"/>
      <point x="414" y="383" type="line"/>
      <point x="285" y="660" type="line"/>
    </contour>
  </outline>
</glyph>
<glyph name="asciicircum" format="2">
  <advance width="647"/>
  <unicode hex="005E"/>
  <outline>
    <contour>
      <point x="219" y="355" type="line"/>
      <point x="390" y="720" type="line"/>
      <point x="229" y="720" type="line"/>
      <point x="23" y="355" type="line"/>
    </contour>
    <contour>
      <point x="418" y="720" type="line"/>
      <point x="257" y="720" type="line"/>
      <point x="428" y="355" type="line"/>
      <point x="624" y="355" type="line"/>
    </contour>
  </outline>
</glyph>
<glyph name="d" format="2">
  <advance width="627"/>
  <unicode hex="0064"/>
  <anchor x="310" y="250" name="center"/>
  <anchor x="223" y="0" name="bottomC"/>
  <anchor x="473" y="700" name="top"/>
  <anchor x="310" y="0" name="bottom"/>
  <anchor x="643" y="700" name="topright"/>
  <anchor x="288" y="10" name="ogonek"/>
  <outline>
    <contour>
      <point x="358" y="700" type="line"/>
      <point x="358" y="219" type="line"/>
      <point x="369" y="162" type="line"/>
      <point x="381" y="0" type="line"/>
      <point x="588" y="0" type="line"/>
      <point x="588" y="219" type="line"/>
      <point x="588" y="700" type="line"/>
    </contour>
    <component base="bowl" xOffset="-55"/>
  </outline>
</glyph>
<glyph name="e" format="2">
  <advance width="583"/>
  <unicode hex="0065"/>
  <anchor x="307" y="0" name="bottomC"/>
  <anchor x="296" y="500" name="top"/>
  <anchor x="348" y="36" name="ogonek"/>
  <anchor x="294" y="0" name="bottom"/>
  <outline>
    <contour>
      <point x="554" y="136" type="curve"/>
      <point x="369" y="186" type="line"/>
      <point x="362" y="159"/>
      <point x="343" y="143"/>
      <point x="309" y="143" type="curve" smooth="yes"/>
      <point x="261" y="143"/>
      <point x="238" y="159"/>
      <point x="238" y="246" type="curve" smooth="yes"/>
      <point x="238" y="332"/>
      <point x="255" y="358"/>
      <point x="298" y="358" type="curve" smooth="yes"/>
      <point x="341" y="358"/>
      <point x="349" y="320"/>
      <point x="349" y="248" type="curve"/>
      <point x="458" y="291" type="line"/>
      <point x="168" y="291" type="line"/>
      <point x="168" y="206" type="line"/>
      <point x="558" y="206" type="line"/>
      <point x="561" y="219"/>
      <point x="563" y="244"/>
      <point x="563" y="266" type="curve" smooth="yes"/>
      <point x="563" y="412"/>
      <point x="473" y="510"/>
      <point x="297" y="510" type="curve" smooth="yes"/>
      <point x="121" y="510"/>
      <point x="20" y="416"/>
      <point x="20" y="250" type="curve" smooth="yes"/>
      <point x="20" y="84"/>
      <point x="118" y="-10"/>
      <point x="309" y="-10" type="curve" smooth="yes"/>
      <point x="431" y="-10"/>
      <point x="531" y="37"/>
    </contour>
  </outline>
</glyph>
<glyph name="f" format="2">
  <advance width="430"/>
  <unicode hex="0066"/>
  <anchor x="185" y="0" name="bottomC"/>
  <anchor x="252" y="700" name="top"/>
  <anchor x="300" y="0" name="ogonek"/>
  <anchor x="185" y="0" name="bottom"/>
  <outline>
    <contour>
      <point x="70" y="520" type="curve" smooth="yes"/>
      <point x="70" y="0" type="line"/>
      <point x="300" y="0" type="line"/>
      <point x="300" y="421" type="line"/>
      <point x="284" y="450" type="line"/>
      <point x="284" y="508" type="line" smooth="yes"/>
      <point x="284" y="555"/>
      <point x="313" y="570"/>
      <point x="361" y="570" type="curve" smooth="yes"/>
      <point x="389" y="570"/>
      <point x="404" y="565"/>
      <point x="418" y="554" type="curve"/>
      <point x="433" y="687" type="line"/>
      <point x="407" y="707"/>
      <point x="361" y="720"/>
      <point x="298" y="720" type="curve" smooth="yes"/>
      <point x="183" y="720"/>
      <point x="70" y="672"/>
    </contour>
    <contour>
      <point x="3" y="500" type="line"/>
      <point x="3" y="345" type="line"/>
      <point x="426" y="345" type="line"/>
      <point x="426" y="500" type="line"/>
    </contour>
  </outline>
</glyph>
<glyph name="m" format="2">
  <advance width="933"/>
  <unicode hex="006D"/>
  <anchor x="776" y="0" name="bottomC"/>
  <anchor x="467" y="500" name="top"/>
  <anchor x="891" y="0" name="ogonek"/>
  <anchor x="467" y="0" name="bottom"/>
  <outline>
    <contour>
      <point x="544" y="262" type="curve"/>
      <point x="582" y="262" type="line"/>
      <point x="582" y="316"/>
      <point x="597" y="340"/>
      <point x="630" y="340" type="curve" smooth="yes"/>
      <point x="654" y="340"/>
      <point x="665" y="327"/>
      <point x="665" y="282" type="curve" smooth="yes"/>
      <point x="665" y="0" type="line"/>
      <point x="891" y="0" type="line"/>
      <point x="895" y="342" type="line" smooth="yes"/>
      <point x="896" y="449"/>
      <point x="837" y="510"/>
      <point x="738" y="510" type="curve" smooth="yes"/>
      <point x="612" y="510"/>
      <point x="544" y="418"/>
    </contour>
    <contour>
      <point x="39" y="500" type="line"/>
      <point x="39" y="281" type="line"/>
      <point x="39" y="0" type="line"/>
      <point x="269" y="0" type="line"/>
      <point x="269" y="281" type="line"/>
      <point x="254" y="338" type="line"/>
      <point x="246" y="500" type="line"/>
    </contour>
    <contour>
      <point x="231" y="262" type="curve"/>
      <point x="269" y="262" type="line"/>
      <point x="269" y="316"/>
      <point x="284" y="340"/>
      <point x="317" y="340" type="curve" smooth="yes"/>
      <point x="341" y="340"/>
      <point x="352" y="327"/>
      <point x="352" y="282" type="curve" smooth="yes"/>
      <point x="352" y="0" type="line"/>
      <point x="582" y="0" type="line"/>
      <point x="582" y="342" type="line" smooth="yes"/>
      <point x="582" y="449"/>
      <point x="524" y="510"/>
      <point x="425" y="510" type="curve" smooth="yes"/>
      <point x="299" y="510"/>
      <point x="231" y="418"/>
    </contour>
  </outline>
</glyph>
<glyph name="p" format="2">
  <advance width="627"/>
  <unicode hex="0070"/>
  <anchor x="441" y="0" name="bottomC"/>
  <anchor x="317" y="500" name="top"/>
  <anchor x="493" y="10" name="ogonek"/>
  <anchor x="154" y="-210" name="bottom"/>
  <outline>
    <contour>
      <point x="39" y="500" type="line"/>
      <point x="39" y="281" type="line"/>
      <point x="39" y="-210" type="line"/>
      <point x="269" y="-210" type="line"/>
      <point x="269" y="281" type="line"/>
      <point x="249" y="338" type="line"/>
      <point x="241" y="500" type="line"/>
    </contour>
    <component base="bowl" xScale="-1" yScale="-1" xOffset="682" yOffset="500"/>
  </outline>
</glyph>
<glyph name="r" format="2">
  <advance width="444"/>
  <unicode hex="0072"/>
  <anchor x="154" y="0" name="bottomC"/>
  <anchor x="241" y="500" name="top"/>
  <anchor x="269" y="0" name="ogonek"/>
  <anchor x="142" y="0" name="bottom"/>
  <outline>
    <contour>
      <point x="236" y="240" type="curve"/>
      <point x="269" y="240" type="line"/>
      <point x="269" y="297"/>
      <point x="308" y="326"/>
      <point x="368" y="326" type="curve" smooth="yes"/>
      <point x="395" y="326"/>
      <point x="419" y="319"/>
      <point x="431" y="310" type="curve"/>
      <point x="450" y="498" type="line"/>
      <point x="443" y="503"/>
      <point x="428" y="510"/>
      <point x="398" y="510" type="curve" smooth="yes"/>
      <point x="282" y="510"/>
      <point x="236" y="394"/>
    </contour>
    <contour>
      <point x="39" y="500" type="line"/>
      <point x="39" y="0" type="line"/>
      <point x="269" y="0" type="line"/>
      <point x="269" y="281" type="line"/>
      <point x="254" y="307" type="line"/>
      <point x="246" y="500" type="line"/>
    </contour>
  </outline>
</glyph>
<glyph name="bar" format="2">
  <advance width="372"/>
  <unicode hex="007C"/>
  <outline>
    <contour>
      <point x="84" y="701" type="line"/>
      <point x="84" y="-168" type="line"/>
      <point x="288" y="-168" type="line"/>
      <point x="288" y="701" type="line"/>
    </contour>
  </outline>
</glyph>
<glyph name="cent" format="2">
  <advance width="581"/>
  <unicode hex="00A2"/>
  <outline>
    <contour>
      <point x="29" y="250" type="curve" smooth="yes"/>
      <point x="29" y="84"/>
      <point x="128" y="-10"/>
      <point x="316" y="-10" type="curve" smooth="yes"/>
      <point x="482" y="-10"/>
      <point x="572" y="56"/>
      <point x="566" y="148" type="curve"/>
      <point x="406" y="203" type="line"/>
      <point x="400" y="151"/>
      <point x="367" y="124"/>
      <point x="315" y="124" type="curve" smooth="yes"/>
      <point x="260" y="124"/>
      <point x="227" y="144"/>
      <point x="227" y="247" type="curve" smooth="yes"/>
      <point x="227" y="348"/>
      <point x="252" y="376"/>
      <point x="315" y="376" type="curve" smooth="yes"/>
      <point x="364" y="376"/>
      <point x="401" y="346"/>
      <point x="405" y="287" type="curve"/>
      <point x="567" y="340" type="line"/>
      <point x="570" y="426"/>
      <point x="507" y="510"/>
      <point x="306" y="510" type="curve" smooth="yes"/>
      <point x="131" y="510"/>
      <point x="29" y="416"/>
    </contour>
    <contour>
      <point x="261" y="600" type="line"/>
      <point x="261" y="-100" type="line"/>
      <point x="363" y="-100" type="line"/>
      <point x="363" y="600" type="line"/>
    </contour>
  </outline>
</glyph>
<glyph name="yen" format="2">
  <advance width="717"/>
  <unicode hex="00A5"/>
  <outline>
    <contour>
      <point x="9" y="660" type="line"/>
      <point x="255" y="275" type="line"/>
      <point x="462" y="275" type="line"/>
      <point x="708" y="660" type="line"/>
      <point x="477" y="660" type="line"/>
      <point x="401" y="479" type="line"/>
      <point x="360" y="374" type="line"/>
      <point x="358" y="374" type="line"/>
      <point x="317" y="478" type="line"/>
      <point x="241" y="660" type="line"/>
    </contour>
    <contour>
      <point x="472" y="0" type="line"/>
      <point x="472" y="265" type="line"/>
      <point x="245" y="265" type="line"/>
      <point x="245" y="0" type="line"/>
    </contour>
    <contour>
      <point x="663" y="131" type="line"/>
      <point x="663" y="190" type="line"/>
      <point x="54" y="190" type="line"/>
      <point x="54" y="131" type="line"/>
    </contour>
    <contour>
      <point x="663" y="251" type="line"/>
      <point x="663" y="310" type="line"/>
      <point x="553" y="310" type="line"/>
      <point x="359" y="300" type="line"/>
      <point x="164" y="310" type="line"/>
      <point x="54" y="310" type="line"/>
      <point x="54" y="251" type="line"/>
    </contour>
  </outline>
</glyph>
<glyph name="dieresis" format="2">
  <advance width="500"/>
  <unicode hex="00A8"/>
  <anchor x="250" y="500" name="_top"/>
  <outline>
    <contour>
      <point x="28" y="629" type="curve" smooth="yes"/>
      <point x="28" y="571"/>
      <point x="65" y="538"/>
      <point x="130" y="538" type="curve" smooth="yes"/>
      <point x="197" y="538"/>
      <point x="235" y="571"/>
      <point x="235" y="629" type="curve" smooth="yes"/>
      <point x="235" y="687"/>
      <point x="197" y="720"/>
      <point x="130" y="720" type="curve" smooth="yes"/>
      <point x="65" y="720"/>
      <point x="28" y="687"/>
    </contour>
    <contour>
      <point x="265" y="629" type="curve" smooth="yes"/>
      <point x="265" y="571"/>
      <point x="302" y="538"/>
      <point x="367" y="538" type="curve" smooth="yes"/>
      <point x="434" y="538"/>
      <point x="472" y="571"/>
      <point x="472" y="629" type="curve" smooth="yes"/>
      <point x="472" y="687"/>
      <point x="434" y="720"/>
      <point x="367" y="720" type="curve" smooth="yes"/>
      <point x="302" y="720"/>
      <point x="265" y="687"/>
    </contour>
  </outline>
</glyph>
<glyph name="cedilla" format="2">
  <advance width="500"/>
  <unicode hex="00B8"/>
  <anchor x="260" y="0" name="_bottomC"/>
  <outline>
    <contour>
      <point x="282" y="-60" type="curve" smooth="yes"/>
      <point x="282" y="-89"/>
      <point x="260" y="-104"/>
      <point x="228" y="-104" type="curve" smooth="yes"/>
      <point x="195" y="-104"/>
      <point x="170" y="-92"/>
      <point x="154" y="-76" type="curve"/>
      <point x="109" y="-171" type="line"/>
      <point x="133" y="-194"/>
      <point x="170" y="-215"/>
      <point x="243" y="-215" type="curve" smooth="yes"/>
      <point x="331" y="-215"/>
      <point x="404" y="-184"/>
      <point x="404" y="-90" type="curve" smooth="yes"/>
      <point x="404" y="-19"/>
      <point x="337" y="34"/>
      <point x="208" y="42" type="curve"/>
      <point x="168" y="2" type="line"/>
      <point x="259" y="-9"/>
      <point x="282" y="-32"/>
    </contour>
  </outline>
</glyph>
<glyph name="Oslash" format="2">
  <advance width="729"/>
  <unicode hex="00D8"/>
  <anchor x="365" y="0" name="bottomC"/>
  <anchor x="365" y="660" name="top"/>
  <anchor x="452" y="0" name="ogonek"/>
  <anchor x="365" y="0" name="bottom"/>
  <outline>
    <contour>
      <point x="584" y="680" type="line"/>
      <point x="483" y="541" type="line"/>
      <point x="532" y="482" type="line"/>
      <point x="679" y="680" type="line"/>
    </contour>
    <contour>
      <point x="203" y="167" type="line"/>
      <point x="261" y="112" type="line"/>
      <point x="529" y="488" type="line"/>
      <point x="472" y="545" type="line"/>
    </contour>
    <contour>
      <point x="144" y="-21" type="line"/>
      <point x="245" y="118" type="line"/>
      <point x="193" y="176" type="line"/>
      <point x="48" y="-21" type="line"/>
    </contour>
    <component base="O"/>
  </outline>
</glyph>
<glyph name="Lslash" format="2">
  <advance width="655"/>
  <unicode hex="0141"/>
  <anchor x="455" y="364" name="center"/>
  <anchor x="367" y="0" name="bottomC"/>
  <anchor x="216" y="660" name="top"/>
  <anchor x="368" y="0" name="bottom"/>
  <anchor x="438" y="701" name="topright"/>
  <anchor x="632" y="0" name="ogonek"/>
  <outline>
    <contour>
      <point x="-14" y="299" type="line"/>
      <point x="-14" y="146" type="line"/>
      <point x="499" y="372" type="line"/>
      <point x="499" y="525" type="line"/>
    </contour>
    <component base="L" xOffset="50"/>
  </outline>
</glyph>
<glyph name="lslash" format="2">
  <advance width="409"/>
  <unicode hex="0142"/>
  <anchor x="350" y="352" name="center"/>
  <anchor x="259" y="0" name="bottomC"/>
  <anchor x="183" y="700" name="top"/>
  <anchor x="213" y="0" name="bottom"/>
  <anchor x="356" y="700" name="topright"/>
  <anchor x="317" y="0" name="ogonek"/>
  <outline>
    <contour>
      <point x="185" y="375" type="line"/>
      <point x="-2" y="297" type="line"/>
      <point x="-2" y="145" type="line"/>
      <point x="236" y="300" type="line"/>
      <point x="402" y="365" type="line"/>
      <point x="402" y="518" type="line"/>
    </contour>
    <component base="l" xOffset="39"/>
  </outline>
</glyph>
<glyph name="oe" format="2">
  <advance width="930"/>
  <unicode hex="0153"/>
  <anchor x="660" y="0" name="bottomC"/>
  <anchor x="466" y="500" name="top"/>
  <anchor x="779" y="10" name="ogonek"/>
  <anchor x="466" y="0" name="bottom"/>
  <outline>
    <contour>
      <point x="20" y="250" type="curve" smooth="yes"/>
      <point x="20" y="85"/>
      <point x="123" y="-10"/>
      <point x="285" y="-10" type="curve" smooth="yes"/>
      <point x="445" y="-10"/>
      <point x="528" y="85"/>
      <point x="528" y="250" type="curve" smooth="yes"/>
      <point x="528" y="415"/>
      <point x="445" y="510"/>
      <point x="285" y="510" type="curve" smooth="yes"/>
      <point x="123" y="510"/>
      <point x="20" y="415"/>
    </contour>
    <contour>
      <point x="347" y="250" type="curve" smooth="yes"/>
      <point x="347" y="165"/>
      <point x="337" y="145"/>
      <point x="299" y="145" type="curve" smooth="yes"/>
      <point x="262" y="145"/>
      <point x="252" y="165"/>
      <point x="252" y="250" type="curve" smooth="yes"/>
      <point x="252" y="334"/>
      <point x="262" y="356"/>
      <point x="299" y="356" type="curve" smooth="yes"/>
      <point x="337" y="356"/>
      <point x="347" y="334"/>
    </contour>
    <contour>
      <point x="901" y="136" type="curve"/>
      <point x="716" y="186" type="line"/>
      <point x="709" y="159"/>
      <point x="690" y="143"/>
      <point x="656" y="143" type="curve" smooth="yes"/>
      <point x="608" y="143"/>
      <point x="585" y="159"/>
      <point x="585" y="246" type="curve" smooth="yes"/>
      <point x="585" y="332"/>
      <point x="602" y="358"/>
      <point x="645" y="358" type="curve" smooth="yes"/>
      <point x="688" y="358"/>
      <point x="696" y="320"/>
      <point x="696" y="248" type="curve"/>
      <point x="805" y="291" type="line"/>
      <point x="515" y="291" type="line"/>
      <point x="515" y="206" type="line"/>
      <point x="905" y="206" type="line"/>
      <point x="908" y="219"/>
      <point x="910" y="244"/>
      <point x="910" y="266" type="curve" smooth="yes"/>
      <point x="910" y="412"/>
      <point x="820" y="510"/>
      <point x="644" y="510" type="curve" smooth="yes"/>
      <point x="500" y="510"/>
      <point x="417" y="416"/>
      <point x="417" y="250" type="curve" smooth="yes"/>
      <point x="417" y="84"/>
      <point x="498" y="-10"/>
      <point x="656" y="-10" type="curve" smooth="yes"/>
      <point x="778" y="-10"/>
      <point x="878" y="37"/>
    </contour>
  </outline>
</glyph>
<glyph name="uni0162" format="2">
  <advance width="686"/>
  <unicode hex="0162"/>
  <anchor x="341" y="-210" name="bottomC"/>
  <anchor x="343" y="660" name="top"/>
  <anchor x="360" y="-210" name="ogonek"/>
  <anchor x="343" y="330" name="center"/>
  <anchor x="343" y="-210" name="bottom"/>
  <outline>
    <contour>
      <point x="372" y="-51" type="curve" smooth="yes"/>
      <point x="372" y="-87"/>
      <point x="345" y="-101"/>
      <point x="316" y="-101" type="curve" smooth="yes"/>
      <point x="281" y="-101"/>
      <point x="265" y="-89"/>
      <point x="250" y="-70" type="curve"/>
      <point x="194" y="-170" type="line"/>
      <point x="218" y="-193"/>
      <point x="260" y="-215"/>
      <point x="333" y="-215" type="curve" smooth="yes"/>
      <point x="421" y="-215"/>
      <point x="494" y="-184"/>
      <point x="494" y="-83" type="curve" smooth="yes"/>
      <point x="494" y="3"/>
      <point x="434" y="46"/>
      <point x="308" y="48" type="curve"/>
      <point x="298" y="0" type="line"/>
      <point x="344" y="0"/>
      <point x="372" y="-18"/>
    </contour>
    <component base="T"/>
  </outline>
</glyph>
<glyph name="longs" format="2">
  <advance width="369"/>
  <unicode hex="017F"/>
  <anchor x="146" y="0" name="bottomC"/>
  <anchor x="208" y="700" name="top"/>
  <anchor x="261" y="0" name="ogonek"/>
  <anchor x="150" y="0" name="bottom"/>
  <outline>
    <contour>
      <point x="261" y="0" type="line"/>
      <point x="261" y="505" type="line" smooth="yes"/>
      <point x="261" y="552"/>
      <point x="291" y="570"/>
      <point x="330" y="570" type="curve" smooth="yes"/>
      <point x="348" y="570"/>
      <point x="359" y="568"/>
      <point x="371" y="560" type="curve"/>
      <point x="377" y="694" type="line"/>
      <point x="350" y="713"/>
      <point x="318" y="720"/>
      <point x="267" y="720" type="curve" smooth="yes"/>
      <point x="152" y="720"/>
      <point x="39" y="672"/>
      <point x="39" y="520" type="curve" smooth="yes"/>
      <point x="39" y="0" type="line"/>
    </contour>
  </outline>
</glyph>
<glyph name="florin" format="2">
  <advance width="535"/>
  <unicode hex="0192"/>
  <outline>
    <contour>
      <point x="205" y="530" type="curve" smooth="yes"/>
      <point x="126" y="90" type="line" smooth="yes"/>
      <point x="118" y="47"/>
      <point x="85" y="20"/>
      <point x="40" y="20" type="curve" smooth="yes"/>
      <point x="23" y="20"/>
      <point x="7" y="24"/>
      <point x="-4" y="31" type="curve"/>
      <point x="-32" y="-99" type="line"/>
      <point x="1" y="-121"/>
      <point x="30" y="-128"/>
      <point x="86" y="-128" type="curve" smooth="yes"/>
      <point x="211" y="-128"/>
      <point x="292" y="-59"/>
      <point x="314" y="63" type="curve" smooth="yes"/>
      <point x="393" y="503" type="line" smooth="yes"/>
      <point x="401" y="547"/>
      <point x="433" y="574"/>
      <point x="479" y="574" type="curve" smooth="yes"/>
      <point x="496" y="574"/>
      <point x="511" y="570"/>
      <point x="523" y="563" type="curve"/>
      <point x="551" y="693" type="line"/>
      <point x="518" y="715"/>
      <point x="489" y="722"/>
      <point x="433" y="722" type="curve" smooth="yes"/>
      <point x="307" y="722"/>
      <point x="227" y="653"/>
    </contour>
    <contour>
      <point x="28" y="429" type="line"/>
      <point x="28" y="277" type="line"/>
      <point x="506" y="277" type="line"/>
      <point x="506" y="429" type="line"/>
    </contour>
  </outline>
</glyph>
<glyph name="breve" format="2">
  <advance width="500"/>
  <unicode hex="02D8"/>
  <anchor x="250" y="500" name="_top"/>
  <outline>
    <contour>
      <point x="294" y="713" type="line"/>
      <point x="294" y="677"/>
      <point x="280" y="658"/>
      <point x="250" y="658" type="curve" smooth="yes"/>
      <point x="220" y="658"/>
      <point x="206" y="677"/>
      <point x="206" y="713" type="curve"/>
      <point x="67" y="713" type="line"/>
      <point x="67" y="603"/>
      <point x="134" y="540"/>
      <point x="250" y="540" type="curve" smooth="yes"/>
      <point x="366" y="540"/>
      <point x="433" y="603"/>
      <point x="433" y="713" type="curve"/>
    </contour>
  </outline>
</glyph>
<glyph name="daggerdbl" format="2">
  <advance width="650"/>
  <unicode hex="2021"/>
  <outline>
    <contour>
      <point x="229" y="660" type="line"/>
      <point x="229" y="-100" type="line"/>
      <point x="419" y="-100" type="line"/>
      <point x="419" y="660" type="line"/>
    </contour>
    <contour>
      <point x="41" y="490" type="line"/>
      <point x="41" y="329" type="line"/>
      <point x="609" y="329" type="line"/>
      <point x="609" y="490" type="line"/>
    </contour>
    <contour>
      <point x="41" y="221" type="line"/>
      <point x="41" y="60" type="line"/>
      <point x="609" y="60" type="line"/>
      <point x="609" y="221" type="line"/>
    </contour>
  </outline>
</glyph>
<glyph name="Euro" format="2">
  <advance width="703"/>
  <unicode hex="20AC"/>
  <outline>
    <contour>
      <point x="0" y="292" type="line"/>
      <point x="0" y="206" type="line"/>
      <point x="461" y="206" type="line"/>
      <point x="488" y="292" type="line"/>
    </contour>
    <contour>
      <point x="0" y="422" type="line"/>
      <point x="0" y="336" type="line"/>
      <point x="499" y="336" type="line"/>
      <point x="529" y="422" type="line"/>
    </contour>
    <component base="euro.part"/>
  </outline>
</glyph>
<glyph name="uni20BD" format="2">
  <advance width="715"/>
  <unicode hex="20BD"/>
  <outline>
    <contour>
      <point x="266" y="660" type="line"/>
      <point x="266" y="494" type="line"/>
      <point x="370" y="494" type="line" smooth="yes"/>
      <point x="427" y="494"/>
      <point x="452" y="475"/>
      <point x="452" y="432" type="curve" smooth="yes"/>
      <point x="452" y="389"/>
      <point x="427" y="370"/>
      <point x="370" y="370" type="curve" smooth="yes"/>
      <point x="16" y="370" type="line"/>
      <point x="16" y="277" type="line"/>
      <point x="408" y="277" type="line" smooth="yes"/>
      <point x="593" y="277"/>
      <point x="685" y="332"/>
      <point x="685" y="468" type="curve" smooth="yes"/>
      <point x="685" y="583"/>
      <point x="593" y="660"/>
      <point x="408" y="660" type="curve" smooth="yes"/>
    </contour>
    <contour>
      <point x="99" y="660" type="line"/>
      <point x="99" y="0" type="line"/>
      <point x="332" y="0" type="line"/>
      <point x="332" y="660" type="line"/>
    </contour>
    <contour>
      <point x="515" y="217" type="line"/>
      <point x="16" y="217" type="line"/>
      <point x="16" y="129" type="line"/>
      <point x="515" y="129" type="line"/>
    </contour>
  </outline>
</glyph>
<glyph name="uparrow" format="2">
  <advance width="750"/>
  <unicode hex="2191"/>
  <outline>
    <contour>
      <point x="391" y="588" type="curve"/>
      <point x="357" y="588" type="line"/>
      <point x="381" y="481"/>
      <point x="440" y="318"/>
      <point x="617" y="201" type="curve"/>
      <point x="729" y="371" type="line"/>
      <point x="572" y="464"/>
      <point x="459" y="554"/>
      <point x="377" y="666" type="curve"/>
      <point x="371" y="666" type="line"/>
      <point x="289" y="554"/>
      <point x="176" y="464"/>
      <point x="19" y="371" type="curve"/>
      <point x="131" y="201" type="line"/>
      <point x="308" y="318"/>
      <point x="367" y="481"/>
    </contour>
    <contour>
      <point x="489" y="0" type="line"/>
      <point x="489" y="155" type="line" smooth="yes"/>
      <point x="489" y="280"/>
      <point x="469" y="405"/>
      <point x="439" y="510" type="curve"/>
      <point x="374" y="610" type="line"/>
      <point x="309" y="510" type="line"/>
      <point x="279" y="405"/>
      <point x="259" y="280"/>
      <point x="259" y="155" type="curve" smooth="yes"/>
      <point x="259" y="0" type="line"/>
    </contour>
  </outline>
</glyph>
<glyph name="updownarrow" format="2">
  <advance width="750"/>
  <unicode hex="2195"/>
  <outline>
    <contour>
      <point x="440" y="-50" type="line"/>
      <point x="470" y="55"/>
      <point x="490" y="180"/>
      <point x="490" y="305" type="curve" smooth="yes"/>
      <point x="490" y="355" type="line" smooth="yes"/>
      <point x="490" y="480"/>
      <point x="470" y="605"/>
      <point x="440" y="710" type="curve"/>
      <point x="375" y="810" type="line"/>
      <point x="310" y="710" type="line"/>
      <point x="280" y="605"/>
      <point x="260" y="480"/>
      <point x="260" y="355" type="curve" smooth="yes"/>
      <point x="260" y="305" type="line" smooth="yes"/>
      <point x="260" y="180"/>
      <point x="280" y="55"/>
      <point x="310" y="-50" type="curve"/>
      <point x="375" y="-150" type="line"/>
    </contour>
    <contour>
      <point x="392" y="788" type="curve"/>
      <point x="358" y="788" type="line"/>
      <point x="382" y="681"/>
      <point x="441" y="518"/>
      <point x="618" y="401" type="curve"/>
      <point x="730" y="571" type="line"/>
      <point x="573" y="664"/>
      <point x="460" y="754"/>
      <point x="378" y="866" type="curve"/>
      <point x="372" y="866" type="line"/>
      <point x="290" y="754"/>
      <point x="177" y="664"/>
      <point x="20" y="571" type="curve"/>
      <point x="132" y="401" type="line"/>
      <point x="309" y="518"/>
      <point x="368" y="681"/>
    </contour>
    <contour>
      <point x="20" y="89" type="line"/>
      <point x="177" y="-4"/>
      <point x="290" y="-94"/>
      <point x="372" y="-206" type="curve"/>
      <point x="378" y="-206" type="line"/>
      <point x="460" y="-94"/>
      <point x="573" y="-4"/>
      <point x="730" y="89" type="curve"/>
      <point x="618" y="259" type="line"/>
      <point x="441" y="142"/>
      <point x="382" y="-21"/>
      <point x="358" y="-128" type="curve"/>
      <point x="392" y="-128" type="line"/>
      <point x="368" y="-21"/>
      <point x="309" y="142"/>
      <point x="132" y="259" type="curve"/>
    </contour>
  </outline>
</glyph>
<glyph name="nearrow" format="2">
  <advance width="750"/>
  <unicode hex="2197"/>
  <outline>
    <contour>
      <point x="333" y="165" type="line" smooth="yes"/>
      <point x="421" y="252"/>
      <point x="536" y="376"/>
      <point x="589" y="472" type="curve"/>
      <point x="613" y="588" type="line"/>
      <point x="497" y="564" type="line"/>
      <point x="401" y="511"/>
      <point x="279" y="397"/>
      <point x="190" y="308" type="curve" smooth="yes"/>
      <point x="79" y="196" type="line"/>
      <point x="221" y="54" type="line"/>
    </contour>
    <contour>
      <point x="665" y="126" type="line"/>
      <point x="638" y="272"/>
      <point x="641" y="480"/>
      <point x="655" y="626" type="curve"/>
      <point x="651" y="630" type="line"/>
      <point x="504" y="616"/>
      <point x="297" y="613"/>
      <point x="151" y="640" type="curve"/>
      <point x="145" y="441" type="line"/>
      <point x="386" y="431"/>
      <point x="517" y="502"/>
      <point x="610" y="561" type="curve"/>
      <point x="586" y="585" type="line"/>
      <point x="527" y="492"/>
      <point x="456" y="361"/>
      <point x="466" y="120" type="curve"/>
    </contour>
  </outline>
</glyph>
<glyph name="approxequal" format="2">
  <advance width="604"/>
  <unicode hex="2248"/>
  <outline>
    <contour>
      <point x="57" y="508" type="curve"/>
      <point x="57" y="347" type="line"/>
      <point x="97" y="383"/>
      <point x="131" y="398"/>
      <point x="188" y="398" type="curve" smooth="yes"/>
      <point x="267" y="398"/>
      <point x="328" y="342"/>
      <point x="419" y="342" type="curve" smooth="yes"/>
      <point x="466" y="342"/>
      <point x="507" y="357"/>
      <point x="547" y="391" type="curve"/>
      <point x="547" y="551" type="line"/>
      <point x="499" y="511"/>
      <point x="462" y="500"/>
      <point x="410" y="500" type="curve" smooth="yes"/>
      <point x="344" y="500"/>
      <point x="284" y="558"/>
      <point x="188" y="558" type="curve" smooth="yes"/>
      <point x="132" y="558"/>
      <point x="100" y="543"/>
    </contour>
    <contour>
      <point x="57" y="252" type="curve"/>
      <point x="57" y="91" type="line"/>
      <point x="97" y="128"/>
      <point x="131" y="142"/>
      <point x="188" y="142" type="curve" smooth="yes"/>
      <point x="267" y="142"/>
      <point x="328" y="85"/>
      <point x="419" y="85" type="curve" smooth="yes"/>
      <point x="466" y="85"/>
      <point x="507" y="101"/>
      <point x="547" y="135" type="curve"/>
      <point x="547" y="295" type="line"/>
      <point x="499" y="255"/>
      <point x="462" y="245"/>
      <point x="410" y="245" type="curve" smooth="yes"/>
      <point x="344" y="245"/>
      <point x="284" y="301"/>
      <point x="188" y="301" type="curve" smooth="yes"/>
      <point x="132" y="301"/>
      <point x="100" y="287"/>
    </contour>
  </outline>
</glyph>
<glyph name="notequal" format="2">
  <advance width="604"/>
  <unicode hex="2260"/>
  <outline>
    <contour>
      <point x="380" y="655" type="line"/>
      <point x="99" y="3" type="line"/>
      <point x="224" y="3" type="line"/>
      <point x="506" y="655" type="line"/>
    </contour>
    <contour>
      <point x="50" y="521" type="line"/>
      <point x="50" y="377" type="line"/>
      <point x="554" y="377" type="line"/>
      <point x="554" y="521" type="line"/>
    </contour>
    <contour>
      <point x="50" y="273" type="line"/>
      <point x="50" y="128" type="line"/>
      <point x="554" y="128" type="line"/>
      <point x="554" y="273" type="line"/>
    </contour>
  </outline>
</glyph>
<glyph name="whiteSmallSquare" format="2">
  <advance width="600"/>
  <unicode hex="25AB"/>
  <outline>
    <contour>
      <point x="560" y="0" type="line"/>
      <point x="560" y="500" type="line"/>
      <point x="40" y="500" type="line"/>
      <point x="40" y="0" type="line"/>
    </contour>
    <contour>
      <point x="188" y="362" type="line"/>
      <point x="412" y="362" type="line"/>
      <point x="412" y="138" type="line"/>
      <point x="188" y="138" type="line"/>
    </contour>
  </outline>
</glyph>
<glyph name="lozenge" format="2">
  <advance width="697"/>
  <unicode hex="25CA"/>
  <outline>
    <contour>
      <point x="290" y="660" type="line"/>
      <point x="446" y="330" type="line"/>
      <point x="650" y="330" type="line"/>
      <point x="461" y="660" type="line"/>
    </contour>
    <contour>
      <point x="46" y="330" type="line"/>
      <point x="235" y="0" type="line"/>
      <point x="406" y="0" type="line"/>
      <point x="250" y="330" type="line"/>
    </contour>
    <contour>
      <point x="446" y="330" type="line"/>
      <point x="290" y="0" type="line"/>
      <point x="461" y="0" type="line"/>
      <point x="650" y="330" type="line"/>
    </contour>
    <contour>
      <point x="235" y="660" type="line"/>
      <point x="46" y="330" type="line"/>
      <point x="250" y="330" type="line"/>
      <point x="406" y="660" type="line"/>
    </contour>
  </outline>
</glyph>
<glyph name="whiteCircle" format="2">
  <advance width="600"/>
  <unicode hex="25CB"/>
  <outline>
    <contour>
      <point x="574" y="250" type="curve" smooth="yes"/>
      <point x="574" y="398"/>
      <point x="456" y="510"/>
      <point x="300" y="510" type="curve" smooth="yes"/>
      <point x="144" y="510"/>
      <point x="26" y="398"/>
      <point x="26" y="250" type="curve" smooth="yes"/>
      <point x="26" y="102"/>
      <point x="144" y="-10"/>
      <point x="300" y="-10" type="curve" smooth="yes"/>
      <point x="456" y="-10"/>
      <point x="574" y="102"/>
    </contour>
    <contour>
      <point x="181" y="250" type="curve" smooth="yes"/>
      <point x="181" y="318"/>
      <point x="232" y="370"/>
      <point x="300" y="370" type="curve" smooth="yes"/>
      <point x="368" y="370"/>
      <point x="419" y="318"/>
      <point x="419" y="250" type="curve" smooth="yes"/>
      <point x="419" y="182"/>
      <point x="368" y="130"/>
      <point x="300" y="130" type="curve" smooth="yes"/>
      <point x="232" y="130"/>
      <point x="181" y="182"/>
    </contour>
  </outline>
</glyph>
<glyph name="Adieresis.titl.001" format="2">
  <advance width="689"/>
  <outline>
    <contour>
      <point x="222" y="0" type="line"/>
      <point x="315" y="379" type="line"/>
      <point x="341" y="491" type="line"/>
      <point x="344" y="491" type="line"/>
      <point x="371" y="379" type="line"/>
      <point x="461" y="0" type="line"/>
      <point x="699" y="0" type="line"/>
      <point x="484" y="660" type="line"/>
      <point x="204" y="660" type="line"/>
      <point x="-10" y="0" type="line"/>
    </contour>
    <contour>
      <point x="534" y="126" type="line"/>
      <point x="534" y="271" type="line"/>
      <point x="157" y="271" type="line"/>
      <point x="157" y="126" type="line"/>
    </contour>
    <contour>
      <point x="130" y="502" type="curve"/>
      <point x="177" y="651" type="line"/>
      <point x="163" y="658"/>
      <point x="145" y="662"/>
      <point x="124" y="662" type="curve" smooth="yes"/>
      <point x="65" y="662"/>
      <point x="32" y="633"/>
      <point x="32" y="582" type="curve" smooth="yes"/>
      <point x="32" y="531"/>
      <point x="65" y="502"/>
      <point x="124" y="502" type="curve" smooth="yes"/>
      <point x="127" y="502"/>
      <point x="129" y="502"/>
    </contour>
    <contour>
      <point x="656" y="582" type="curve" smooth="yes"/>
      <point x="656" y="633"/>
      <point x="623" y="662"/>
      <point x="564" y="662" type="curve" smooth="yes"/>
      <point x="543" y="662"/>
      <point x="525" y="658"/>
      <point x="511" y="651" type="curve"/>
      <point x="558" y="502" type="line"/>
      <point x="559" y="502"/>
      <point x="561" y="502"/>
      <point x="564" y="502" type="curve" smooth="yes"/>
      <point x="623" y="502"/>
      <point x="656" y="531"/>
    </contour>
  </outline>
</glyph>
<glyph name="Aogonek_j" format="2">
  <advance width="995"/>
  <anchor x="344" y="660" name="top"/>
  <anchor x="699" y="0" name="ogonek"/>
  <anchor x="344" y="0" name="bottom"/>
  <anchor x="574" y="0" name="bottomC"/>
  <outline>
    <contour>
      <point x="958" y="-23" type="curve" smooth="yes"/>
      <point x="958" y="500" type="line"/>
      <point x="728" y="500" type="line"/>
      <point x="728" y="-18" type="line" smooth="yes"/>
      <point x="728" y="-51"/>
      <point x="719" y="-60"/>
      <point x="706" y="-60" type="curve" smooth="yes"/>
      <point x="696" y="-60"/>
      <point x="687" y="-58"/>
      <point x="682" y="-52" type="curve"/>
      <point x="653" y="-201" type="line"/>
      <point x="681" y="-212"/>
      <point x="700" y="-215"/>
      <point x="732" y="-215" type="curve" smooth="yes"/>
      <point x="845" y="-215"/>
      <point x="958" y="-187"/>
    </contour>
    <contour>
      <point x="616" y="-193" type="curve"/>
      <point x="637" y="-85" type="line"/>
      <point x="626" y="-92"/>
      <point x="615" y="-94"/>
      <point x="600" y="-94" type="curve" smooth="yes"/>
      <point x="576" y="-94"/>
      <point x="561" y="-81"/>
      <point x="561" y="-59" type="curve" smooth="yes"/>
      <point x="561" y="-28"/>
      <point x="601" y="0"/>
      <point x="699" y="0" type="curve"/>
      <point x="589" y="32" type="line"/>
      <point x="487" y="26"/>
      <point x="409" y="-27"/>
      <point x="409" y="-116" type="curve" smooth="yes"/>
      <point x="409" y="-171"/>
      <point x="448" y="-215"/>
      <point x="531" y="-215" type="curve" smooth="yes"/>
      <point x="562" y="-215"/>
      <point x="597" y="-208"/>
    </contour>
    <contour>
      <point x="968" y="628" type="curve" smooth="yes"/>
      <point x="968" y="698"/>
      <point x="935" y="724"/>
      <point x="842" y="724" type="curve" smooth="yes"/>
      <point x="751" y="724"/>
      <point x="718" y="698"/>
      <point x="718" y="628" type="curve" smooth="yes"/>
      <point x="718" y="558"/>
      <point x="751" y="532"/>
      <point x="842" y="532" type="curve" smooth="yes"/>
      <point x="935" y="532"/>
      <point x="968" y="558"/>
    </contour>
    <component base="A"/>
  </outline>
</glyph>
<glyph name="Aogonek_y" format="2">
  <advance width="1213"/>
  <anchor x="344" y="660" name="top"/>
  <anchor x="699" y="0" name="ogonek"/>
  <anchor x="344" y="0" name="bottom"/>
  <anchor x="574" y="0" name="bottomC"/>
  <outline>
    <contour>
      <point x="998" y="500" type="line"/>
      <point x="948" y="243" type="line"/>
      <point x="926" y="125" type="line"/>
      <point x="907" y="242" type="line"/>
      <point x="862" y="500" type="line"/>
      <point x="611" y="500" type="line"/>
      <point x="754" y="128" type="line"/>
      <point x="817" y="-19" type="line"/>
      <point x="814" y="-27" type="line" smooth="yes"/>
      <point x="806" y="-47"/>
      <point x="789" y="-54"/>
      <point x="756" y="-54" type="curve" smooth="yes"/>
      <point x="735" y="-54"/>
      <point x="715" y="-51"/>
      <point x="706" y="-46" type="curve"/>
      <point x="681" y="-195" type="line"/>
      <point x="706" y="-209"/>
      <point x="735" y="-215"/>
      <point x="788" y="-215" type="curve" smooth="yes"/>
      <point x="930" y="-215"/>
      <point x="1010" y="-143"/>
      <point x="1076" y="56" type="curve" smooth="yes"/>
      <point x="1223" y="500" type="line"/>
    </contour>
    <contour>
      <point x="607" y="32" type="line"/>
      <point x="505" y="26"/>
      <point x="412" y="6"/>
      <point x="412" y="-98" type="curve" smooth="yes"/>
      <point x="412" y="-167"/>
      <point x="471" y="-215"/>
      <point x="544" y="-215" type="curve" smooth="yes"/>
      <point x="586" y="-215"/>
      <point x="612" y="-209"/>
      <point x="643" y="-191" type="curve"/>
      <point x="661" y="-83" type="line"/>
      <point x="647" y="-90"/>
      <point x="627" y="-94"/>
      <point x="605" y="-94" type="curve" smooth="yes"/>
      <point x="577" y="-94"/>
      <point x="566" y="-79"/>
      <point x="566" y="-60" type="curve" smooth="yes"/>
      <point x="566" y="-22"/>
      <point x="614" y="-5"/>
      <point x="699" y="0" type="curve"/>
    </contour>
    <component base="A"/>
  </outline>
</glyph>
<glyph name="Lslash.swsh" format="2">
  <advance width="788"/>
  <anchor x="455" y="364" name="center"/>
  <anchor x="415" y="0" name="bottomC"/>
  <anchor x="216" y="660" name="top"/>
  <anchor x="415" y="0" name="bottom"/>
  <anchor x="438" y="701" name="topright"/>
  <anchor x="511" y="0" name="ogonek"/>
  <outline>
    <contour>
      <point x="-14" y="299" type="line"/>
      <point x="-14" y="146" type="line"/>
      <point x="499" y="372" type="line"/>
      <point x="499" y="525" type="line"/>
    </contour>
    <component base="L.swsh" xOffset="50"/>
  </outline>
</glyph>
<glyph name="Odieresis.titl.001" format="2">
  <advance width="729"/>
  <outline>
    <contour>
      <point x="29" y="330" type="curve" smooth="yes"/>
      <point x="29" y="114"/>
      <point x="156" y="-10"/>
      <point x="365" y="-10" type="curve" smooth="yes"/>
      <point x="575" y="-10"/>
      <point x="700" y="114"/>
      <point x="700" y="330" type="curve" smooth="yes"/>
      <point x="700" y="546"/>
      <point x="575" y="670"/>
      <point x="365" y="670" type="curve" smooth="yes"/>
      <point x="156" y="670"/>
      <point x="29" y="546"/>
    </contour>
    <contour>
      <point x="462" y="330" type="curve" smooth="yes"/>
      <point x="462" y="215"/>
      <point x="433" y="165"/>
      <point x="365" y="165" type="curve" smooth="yes"/>
      <point x="297" y="165"/>
      <point x="267" y="215"/>
      <point x="267" y="330" type="curve" smooth="yes"/>
      <point x="267" y="445"/>
      <point x="297" y="495"/>
      <point x="365" y="495" type="curve" smooth="yes"/>
      <point x="433" y="495"/>
      <point x="462" y="445"/>
    </contour>
    <contour>
      <point x="688" y="598" type="curve" smooth="yes"/>
      <point x="688" y="643"/>
      <point x="657" y="670"/>
      <point x="603" y="670" type="curve" smooth="yes"/>
      <point x="577" y="670"/>
      <point x="557" y="663"/>
      <point x="543" y="650" type="curve"/>
      <point x="588" y="627"/>
      <point x="636" y="588"/>
      <point x="663" y="542" type="curve"/>
      <point x="679" y="555"/>
      <point x="688" y="574"/>
    </contour>
    <contour>
      <point x="125" y="670" type="curve" smooth="yes"/>
      <point x="75" y="670"/>
      <point x="45" y="643"/>
      <point x="45" y="597" type="curve" smooth="yes"/>
      <point x="45" y="575"/>
      <point x="53" y="557"/>
      <point x="68" y="544" type="curve"/>
      <point x="95" y="588"/>
      <point x="139" y="626"/>
      <point x="187" y="650" type="curve"/>
      <point x="173" y="663"/>
      <point x="152" y="670"/>
    </contour>
  </outline>
</glyph>
<glyph name="R.ss03" format="2">
  <advance width="705"/>
  <anchor x="569" y="0" name="bottomC"/>
  <anchor x="334" y="660" name="top"/>
  <anchor x="685" y="0" name="ogonek"/>
  <anchor x="362" y="0" name="bottom"/>
  <outline>
    <contour>
      <point x="278" y="0" type="line"/>
      <point x="278" y="219" type="line"/>
      <point x="330" y="219" type="line" smooth="yes"/>
      <point x="379" y="219"/>
      <point x="404" y="204"/>
      <point x="415" y="153" type="curve" smooth="yes"/>
      <point x="429" y="87"/>
      <point x="425" y="43"/>
      <point x="442" y="0" type="curve"/>
      <point x="685" y="0" type="line"/>
      <point x="685" y="5" type="line"/>
      <point x="661" y="47"/>
      <point x="657" y="99"/>
      <point x="643" y="175" type="curve" smooth="yes"/>
      <point x="635" y="218"/>
      <point x="616" y="259"/>
      <point x="551" y="277" type="curve"/>
      <point x="551" y="279" type="line"/>
      <point x="619" y="300"/>
      <point x="675" y="343"/>
      <point x="675" y="449" type="curve" smooth="yes"/>
      <point x="675" y="586"/>
      <point x="584" y="660"/>
      <point x="408" y="660" type="curve" smooth="yes"/>
      <point x="50" y="660" type="line"/>
      <point x="50" y="0" type="line"/>
    </contour>
    <contour>
      <point x="278" y="494" type="line"/>
      <point x="361" y="494" type="line" smooth="yes"/>
      <point x="420" y="494"/>
      <point x="442" y="477"/>
      <point x="442" y="433" type="curve" smooth="yes"/>
      <point x="442" y="388"/>
      <point x="420" y="372"/>
      <point x="361" y="372" type="curve" smooth="yes"/>
      <point x="278" y="372" type="line"/>
    </contour>
  </outline>
</glyph>
<glyph name="Udieresis.titl" format="2">
  <advance width="708"/>
  <outline>
    <contour>
      <point x="427" y="456" type="curve" smooth="yes"/>
      <point x="427" y="496"/>
      <point x="400" y="520"/>
      <point x="354" y="520" type="curve" smooth="yes"/>
      <point x="310" y="520"/>
      <point x="284" y="496"/>
      <point x="284" y="456" type="curve" smooth="yes"/>
      <point x="284" y="418"/>
      <point x="310" y="394"/>
      <point x="354" y="394" type="curve" smooth="yes"/>
      <point x="400" y="394"/>
      <point x="427" y="418"/>
    </contour>
    <contour>
      <point x="427" y="600" type="curve" smooth="yes"/>
      <point x="427" y="639"/>
      <point x="400" y="662"/>
      <point x="354" y="662" type="curve" smooth="yes"/>
      <point x="310" y="662"/>
      <point x="284" y="639"/>
      <point x="284" y="600" type="curve" smooth="yes"/>
      <point x="284" y="560"/>
      <point x="310" y="536"/>
      <point x="354" y="537" type="curve" smooth="yes"/>
      <point x="400" y="536"/>
      <point x="427" y="560"/>
    </contour>
    <contour>
      <point x="440" y="660" type="line"/>
      <point x="440" y="266" type="line" smooth="yes"/>
      <point x="440" y="199"/>
      <point x="410" y="165"/>
      <point x="354" y="165" type="curve" smooth="yes"/>
      <point x="299" y="165"/>
      <point x="269" y="199"/>
      <point x="269" y="266" type="curve" smooth="yes"/>
      <point x="269" y="660" type="line"/>
      <point x="35" y="660" type="line"/>
      <point x="35" y="284" type="line" smooth="yes"/>
      <point x="35" y="87"/>
      <point x="141" y="-10"/>
      <point x="354" y="-10" type="curve" smooth="yes"/>
      <point x="567" y="-10"/>
      <point x="673" y="87"/>
      <point x="673" y="284" type="curve" smooth="yes"/>
      <point x="673" y="660" type="line"/>
    </contour>
  </outline>
</glyph>
<glyph name="adieresis.titl.sc" format="2">
  <advance width="652"/>
  <outline>
    <contour>
      <point x="311" y="689" type="curve" smooth="yes"/>
      <point x="311" y="747"/>
      <point x="273" y="780"/>
      <point x="206" y="780" type="curve" smooth="yes"/>
      <point x="141" y="780"/>
      <point x="104" y="747"/>
      <point x="104" y="689" type="curve" smooth="yes"/>
      <point x="104" y="631"/>
      <point x="141" y="598"/>
      <point x="206" y="598" type="curve" smooth="yes"/>
      <point x="273" y="598"/>
      <point x="311" y="631"/>
    </contour>
    <contour>
      <point x="548" y="689" type="curve" smooth="yes"/>
      <point x="548" y="747"/>
      <point x="510" y="780"/>
      <point x="443" y="780" type="curve" smooth="yes"/>
      <point x="378" y="780"/>
      <point x="341" y="747"/>
      <point x="341" y="689" type="curve" smooth="yes"/>
      <point x="341" y="631"/>
      <point x="378" y="598"/>
      <point x="443" y="598" type="curve" smooth="yes"/>
      <point x="510" y="598"/>
      <point x="548" y="631"/>
    </contour>
    <contour>
      <point x="209" y="0" type="line"/>
      <point x="251" y="165" type="line"/>
      <point x="318" y="401" type="line"/>
      <point x="323" y="401" type="line"/>
      <point x="391" y="165" type="line"/>
      <point x="431" y="0" type="line"/>
      <point x="656" y="0" type="line"/>
      <point x="464" y="560" type="line"/>
      <point x="188" y="560" type="line"/>
      <point x="-4" y="0" type="line"/>
    </contour>
    <contour>
      <point x="499" y="92" type="line"/>
      <point x="499" y="235" type="line"/>
      <point x="152" y="235" type="line"/>
      <point x="152" y="92" type="line"/>
    </contour>
  </outline>
</glyph>
<glyph name="dcroat.sc" format="2">
  <advance width="687"/>
  <anchor x="331" y="0" name="bottomC"/>
  <anchor x="324" y="560" name="top"/>
  <anchor x="357" y="0" name="ogonek"/>
  <anchor x="102" y="58" name="center"/>
  <anchor x="324" y="0" name="bottom"/>
  <outline>
    <contour>
      <point x="0" y="320" type="line"/>
      <point x="0" y="236" type="line"/>
      <point x="376" y="236" type="line"/>
      <point x="376" y="320" type="line"/>
    </contour>
    <component base="d.sc" xOffset="19"/>
  </outline>
</glyph>
<glyph name="e.sc" format="2">
  <advance width="588"/>
  <anchor x="326" y="0" name="bottomC"/>
  <anchor x="302" y="560" name="top"/>
  <anchor x="563" y="0" name="ogonek"/>
  <anchor x="311" y="0" name="bottom"/>
  <outline>
    <contour>
      <point x="53" y="560" type="line"/>
      <point x="53" y="0" type="line"/>
      <point x="278" y="0" type="line"/>
      <point x="278" y="560" type="line"/>
    </contour>
    <contour>
      <point x="168" y="153" type="line"/>
      <point x="168" y="0" type="line"/>
      <point x="563" y="0" type="line"/>
      <point x="563" y="153" type="line"/>
    </contour>
    <contour>
      <point x="168" y="353" type="line"/>
      <point x="168" y="209" type="line"/>
      <point x="499" y="209" type="line"/>
      <point x="499" y="353" type="line"/>
    </contour>
    <contour>
      <point x="168" y="560" type="line"/>
      <point x="168" y="407" type="line"/>
      <point x="562" y="407" type="line"/>
      <point x="562" y="560" type="line"/>
    </contour>
  </outline>
</glyph>
<glyph name="emdashsuperior" format="2">
  <advance width="686"/>
  <outline>
    <contour>
      <point x="51" y="592" type="line"/>
      <point x="51" y="472" type="line"/>
      <point x="635" y="472" type="line"/>
      <point x="635" y="592" type="line"/>
    </contour>
  </outline>
</glyph>
<glyph name="euro.part" format="2">
  <advance width="703"/>
  <outline>
    <contour>
      <point x="77" y="330" type="curve" smooth="yes"/>
      <point x="77" y="115"/>
      <point x="205" y="-10"/>
      <point x="413" y="-10" type="curve" smooth="yes"/>
      <point x="555" y="-10"/>
      <point x="663" y="48"/>
      <point x="689" y="178" type="curve"/>
      <point x="519" y="225" type="line"/>
      <point x="509" y="167"/>
      <point x="474" y="143"/>
      <point x="420" y="143" type="curve" smooth="yes"/>
      <point x="316" y="143"/>
      <point x="284" y="205"/>
      <point x="284" y="330" type="curve" smooth="yes"/>
      <point x="284" y="456"/>
      <point x="324" y="517"/>
      <point x="424" y="517" type="curve" smooth="yes"/>
      <point x="476" y="517"/>
      <point x="525" y="498"/>
      <point x="528" y="436" type="curve"/>
      <point x="690" y="512" type="line"/>
      <point x="663" y="611"/>
      <point x="550" y="670"/>
      <point x="413" y="670" type="curve" smooth="yes"/>
      <point x="205" y="670"/>
      <point x="77" y="545"/>
    </contour>
  </outline>
</glyph>
<glyph name="exclam.sc" format="2">
  <advance width="308"/>
  <outline>
    <contour>
      <point x="38" y="560" type="line"/>
      <point x="38" y="474" type="line"/>
      <point x="62" y="207" type="line"/>
      <point x="246" y="207" type="line"/>
      <point x="270" y="474" type="line"/>
      <point x="270" y="560" type="line"/>
    </contour>
    <component base="period" xScale="0.9" yScale="0.85" xOffset="16"/>
  </outline>
</glyph>
<glyph name="f_idieresis" format="2">
  <advance width="738"/>
  <outline>
    <contour>
      <point x="300" y="0" type="line"/>
      <point x="300" y="421" type="line"/>
      <point x="284" y="490" type="line"/>
      <point x="265" y="499"/>
      <point x="254" y="508"/>
      <point x="254" y="532" type="curve" smooth="yes"/>
      <point x="254" y="555"/>
      <point x="272" y="570"/>
      <point x="301" y="570" type="curve" smooth="yes"/>
      <point x="325" y="570"/>
      <point x="336" y="565"/>
      <point x="348" y="554" type="curve"/>
      <point x="360" y="687" type="line"/>
      <point x="339" y="705"/>
      <point x="296" y="720"/>
      <point x="244" y="720" type="curve" smooth="yes"/>
      <point x="119" y="720"/>
      <point x="40" y="665"/>
      <point x="40" y="577" type="curve" smooth="yes"/>
      <point x="40" y="531"/>
      <point x="59" y="497"/>
      <point x="91" y="480" type="curve"/>
      <point x="70" y="440" type="line"/>
      <point x="70" y="0" type="line"/>
    </contour>
    <contour>
      <point x="413" y="345" type="line"/>
      <point x="413" y="500" type="line"/>
      <point x="3" y="500" type="line"/>
      <point x="3" y="345" type="line"/>
    </contour>
    <contour>
      <point x="699" y="0" type="line"/>
      <point x="699" y="500" type="line"/>
      <point x="469" y="500" type="line"/>
      <point x="469" y="0" type="line"/>
    </contour>
    <contour>
      <point x="573" y="629" type="curve" smooth="yes"/>
      <point x="573" y="692"/>
      <point x="541" y="723"/>
      <point x="477" y="723" type="curve" smooth="yes"/>
      <point x="413" y="723"/>
      <point x="381" y="692"/>
      <point x="381" y="629" type="curve" smooth="yes"/>
      <point x="381" y="566"/>
      <point x="413" y="535"/>
      <point x="477" y="535" type="curve" smooth="yes"/>
      <point x="541" y="535"/>
      <point x="573" y="566"/>
    </contour>
    <contour>
      <point x="787" y="629" type="curve" smooth="yes"/>
      <point x="787" y="692"/>
      <point x="755" y="723"/>
      <point x="691" y="723" type="curve" smooth="yes"/>
      <point x="627" y="723"/>
      <point x="595" y="692"/>
      <point x="595" y="629" type="curve" smooth="yes"/>
      <point x="595" y="566"/>
      <point x="627" y="535"/>
      <point x="691" y="535" type="curve" smooth="yes"/>
      <point x="755" y="535"/>
      <point x="787" y="566"/>
    </contour>
  </outline>
</glyph>
<glyph name="five.osf" format="2">
  <advance width="583"/>
  <outline>
    <contour>
      <point x="226" y="281" type="curve"/>
      <point x="225" y="281" type="line"/>
      <point x="228" y="289"/>
      <point x="229" y="297"/>
      <point x="231" y="311" type="curve" smooth="yes"/>
      <point x="241" y="394" type="line"/>
      <point x="521" y="394" type="line"/>
      <point x="521" y="560" type="line"/>
      <point x="82" y="560" type="line"/>
      <point x="38" y="189" type="line"/>
      <point x="201" y="153" type="line"/>
      <point x="218" y="166"/>
      <point x="234" y="179"/>
      <point x="276" y="179" type="curve" smooth="yes"/>
      <point x="317" y="179"/>
      <point x="342" y="156"/>
      <point x="342" y="113" type="curve" smooth="yes"/>
      <point x="342" y="67"/>
      <point x="319" y="44"/>
      <point x="274" y="44" type="curve" smooth="yes"/>
      <point x="228" y="44"/>
      <point x="202" y="79"/>
      <point x="198" y="125" type="curve"/>
      <point x="8" y="31" type="line"/>
      <point x="61" y="-88"/>
      <point x="172" y="-110"/>
      <point x="285" y="-110" type="curve" smooth="yes"/>
      <point x="421" y="-110"/>
      <point x="543" y="-40"/>
      <point x="543" y="131" type="curve" smooth="yes"/>
      <point x="543" y="247"/>
      <point x="484" y="328"/>
      <point x="352" y="328" type="curve" smooth="yes"/>
      <point x="298" y="328"/>
      <point x="246" y="310"/>
    </contour>
  </outline>
</glyph>
<glyph name="four.tf" format="2">
  <advance width="604"/>
  <outline>
    <contour>
      <point x="504" y="0" type="line"/>
      <point x="504" y="126" type="line"/>
      <point x="595" y="126" type="line"/>
      <point x="595" y="277" type="line"/>
      <point x="504" y="277" type="line"/>
      <point x="504" y="660" type="line"/>
      <point x="240" y="660" type="line"/>
      <point x="25" y="222" type="line"/>
      <point x="25" y="126" type="line"/>
      <point x="304" y="126" type="line"/>
      <point x="304" y="0" type="line"/>
    </contour>
    <contour>
      <point x="288" y="444" type="line" smooth="yes"/>
      <point x="294" y="458"/>
      <point x="310" y="498"/>
      <point x="314" y="514" type="curve"/>
      <point x="317" y="514" type="line"/>
      <point x="315" y="456"/>
      <point x="313" y="376"/>
      <point x="313" y="338" type="curve" smooth="yes"/>
      <point x="313" y="277" type="line"/>
      <point x="211" y="277" type="line"/>
    </contour>
  </outline>
</glyph>
<glyph name="g.sc.ss04" format="2">
  <advance width="639"/>
  <anchor x="354" y="0" name="bottomC"/>
  <anchor x="349" y="560" name="top"/>
  <anchor x="422" y="0" name="ogonek"/>
  <anchor x="384" y="0" name="bottom"/>
  <outline>
    <contour>
      <point x="605" y="228" type="curve" smooth="yes"/>
      <point x="605" y="309" type="line"/>
      <point x="339" y="309" type="line"/>
      <point x="339" y="201" type="line"/>
      <point x="559" y="201" type="line"/>
      <point x="420" y="239" type="line"/>
      <point x="420" y="195" type="line" smooth="yes"/>
      <point x="420" y="169"/>
      <point x="395" y="147"/>
      <point x="348" y="147" type="curve" smooth="yes"/>
      <point x="286" y="147"/>
      <point x="260" y="189"/>
      <point x="260" y="280" type="curve" smooth="yes"/>
      <point x="260" y="364"/>
      <point x="293" y="406"/>
      <point x="347" y="406" type="curve" smooth="yes"/>
      <point x="393" y="406"/>
      <point x="406" y="383"/>
      <point x="415" y="341" type="curve"/>
      <point x="611" y="388" type="line"/>
      <point x="582" y="514"/>
      <point x="465" y="568"/>
      <point x="340" y="568" type="curve" smooth="yes"/>
      <point x="140" y="568"/>
      <point x="32" y="461"/>
      <point x="32" y="278" type="curve" smooth="yes"/>
      <point x="32" y="90"/>
      <point x="145" y="-8"/>
      <point x="340" y="-8" type="curve" smooth="yes"/>
      <point x="513" y="-8"/>
      <point x="605" y="77"/>
    </contour>
  </outline>
</glyph>
<glyph name="g_idieresis" format="2">
  <advance width="886"/>
  <anchor x="732" y="0" name="bottomC"/>
  <anchor x="732" y="500" name="top"/>
  <anchor x="828" y="10" name="ogonek"/>
  <anchor x="732" y="0" name="bottom"/>
  <outline>
    <contour>
      <point x="367" y="474" type="curve"/>
      <point x="424" y="454" type="line"/>
      <point x="424" y="497"/>
      <point x="461" y="537"/>
      <point x="527" y="519" type="curve"/>
      <point x="498" y="662" type="line"/>
      <point x="376" y="677"/>
      <point x="357" y="566"/>
    </contour>
    <component base="gbase" xOffset="-6"/>
    <component base="idieresis" xOffset="578"/>
  </outline>
</glyph>
<glyph name="gbase" format="2">
  <advance width="590"/>
  <outline>
    <contour>
      <point x="27" y="97" type="curve" smooth="yes"/>
      <point x="27" y="-7"/>
      <point x="141" y="-36"/>
      <point x="237" y="-36" type="curve" smooth="yes"/>
      <point x="381" y="-36" type="line" smooth="yes"/>
      <point x="408" y="-36"/>
      <point x="417" y="-41"/>
      <point x="417" y="-51" type="curve" smooth="yes"/>
      <point x="417" y="-68"/>
      <point x="384" y="-76"/>
      <point x="301" y="-76" type="curve" smooth="yes"/>
      <point x="213" y="-76"/>
      <point x="180" y="-69"/>
      <point x="180" y="-53" type="curve" smooth="yes"/>
      <point x="180" y="-39"/>
      <point x="193" y="-36"/>
      <point x="242" y="-36" type="curve"/>
      <point x="190" y="-8" type="line"/>
      <point x="53" y="-8"/>
      <point x="14" y="-57"/>
      <point x="14" y="-107" type="curve" smooth="yes"/>
      <point x="14" y="-177"/>
      <point x="91" y="-215"/>
      <point x="287" y="-215" type="curve" smooth="yes"/>
      <point x="479" y="-215"/>
      <point x="591" y="-155"/>
      <point x="591" y="-28" type="curve" smooth="yes"/>
      <point x="591" y="90"/>
      <point x="517" y="142"/>
      <point x="388" y="142" type="curve" smooth="yes"/>
      <point x="215" y="142" type="line" smooth="yes"/>
      <point x="185" y="142"/>
      <point x="172" y="150"/>
      <point x="172" y="163" type="curve" smooth="yes"/>
      <point x="172" y="178"/>
      <point x="188" y="185"/>
      <point x="235" y="185" type="curve"/>
      <point x="186" y="215" type="line"/>
      <point x="97" y="215"/>
      <point x="27" y="164"/>
    </contour>
    <contour>
      <point x="26" y="339" type="curve" smooth="yes"/>
      <point x="26" y="225"/>
      <point x="118" y="170"/>
      <point x="296" y="170" type="curve" smooth="yes"/>
      <point x="474" y="170"/>
      <point x="566" y="225"/>
      <point x="566" y="339" type="curve" smooth="yes"/>
      <point x="566" y="454"/>
      <point x="474" y="510"/>
      <point x="296" y="510" type="curve" smooth="yes"/>
      <point x="118" y="510"/>
      <point x="26" y="454"/>
    </contour>
    <contour>
      <point x="338" y="340" type="curve" smooth="yes"/>
      <point x="338" y="308"/>
      <point x="323" y="289"/>
      <point x="296" y="289" type="curve" smooth="yes"/>
      <point x="269" y="289"/>
      <point x="254" y="308"/>
      <point x="254" y="340" type="curve" smooth="yes"/>
      <point x="254" y="372"/>
      <point x="269" y="391"/>
      <point x="296" y="391" type="curve" smooth="yes"/>
      <point x="323" y="391"/>
      <point x="338" y="372"/>
    </contour>
  </outline>
</glyph>
<glyph name="iacute_j.loclNLD" format="2">
  <advance width="614"/>
  <anchor x="154" y="0" name="bottomC"/>
  <anchor x="154" y="500" name="top"/>
  <anchor x="250" y="10" name="ogonek"/>
  <anchor x="154" y="0" name="bottom"/>
  <outline>
    <contour>
      <point x="347" y="500" type="line"/>
      <point x="347" y="7" type="line" smooth="yes"/>
      <point x="347" y="-44"/>
      <point x="325" y="-64"/>
      <point x="283" y="-64" type="curve" smooth="yes"/>
      <point x="263" y="-64"/>
      <point x="243" y="-59"/>
      <point x="232" y="-51" type="curve"/>
      <point x="204" y="-184" type="line"/>
      <point x="245" y="-206"/>
      <point x="293" y="-215"/>
      <point x="356" y="-215" type="curve" smooth="yes"/>
      <point x="511" y="-215"/>
      <point x="577" y="-155"/>
      <point x="577" y="-13" type="curve" smooth="yes"/>
      <point x="577" y="500" type="line"/>
    </contour>
    <component base="iacute"/>
    <component base="acute" xOffset="210"/>
  </outline>
</glyph>
<glyph name="j.ogonek" format="2">
  <advance width="352"/>
  <anchor x="158" y="-210" name="bottomC"/>
  <anchor x="199" y="714" name="top"/>
  <anchor x="180" y="-204" name="ogonek"/>
  <anchor x="158" y="-210" name="bottom"/>
  <outline>
    <contour>
      <point x="75" y="628" type="curve" smooth="yes"/>
      <point x="75" y="558"/>
      <point x="108" y="532"/>
      <point x="199" y="532" type="curve" smooth="yes"/>
      <point x="292" y="532"/>
      <point x="325" y="558"/>
      <point x="325" y="628" type="curve" smooth="yes"/>
      <point x="325" y="698"/>
      <point x="292" y="724"/>
      <point x="199" y="724" type="curve" smooth="yes"/>
      <point x="108" y="724"/>
      <point x="75" y="698"/>
    </contour>
    <component base="jdotless.ogonek"/>
  </outline>
</glyph>
<glyph name="jdotless.ogonek" format="2">
  <advance width="354"/>
  <anchor x="158" y="-210" name="bottomC"/>
  <anchor x="200" y="500" name="top"/>
  <anchor x="180" y="-204" name="ogonek"/>
  <anchor x="158" y="-210" name="bottom"/>
  <outline>
    <contour>
      <point x="85" y="500" type="line"/>
      <point x="85" y="-13" type="line" smooth="yes"/>
      <point x="85" y="-48"/>
      <point x="75" y="-60"/>
      <point x="58" y="-60" type="curve" smooth="yes"/>
      <point x="45" y="-60"/>
      <point x="37" y="-58"/>
      <point x="29" y="-50" type="curve"/>
      <point x="0" y="-201" type="line"/>
      <point x="31" y="-212"/>
      <point x="53" y="-215"/>
      <point x="89" y="-215" type="curve" smooth="yes"/>
      <point x="202" y="-215"/>
      <point x="315" y="-187"/>
      <point x="315" y="-23" type="curve" smooth="yes"/>
      <point x="315" y="500" type="line"/>
    </contour>
  </outline>
</glyph>
<glyph name="longs_l.ss02" format="2">
  <advance width="677"/>
  <anchor x="523" y="0" name="bottom"/>
  <anchor x="523" y="700" name="top"/>
  <anchor x="619" y="10" name="ogonek"/>
  <anchor x="689" y="700" name="topright"/>
  <anchor x="523" y="0" name="bottomC"/>
  <outline>
    <contour>
      <point x="261" y="0" type="line"/>
      <point x="261" y="505" type="line" smooth="yes"/>
      <point x="261" y="552"/>
      <point x="291" y="570"/>
      <point x="330" y="570" type="curve" smooth="yes"/>
      <point x="348" y="570"/>
      <point x="359" y="568"/>
      <point x="371" y="560" type="curve"/>
      <point x="377" y="694" type="line"/>
      <point x="350" y="713"/>
      <point x="318" y="720"/>
      <point x="267" y="720" type="curve" smooth="yes"/>
      <point x="152" y="720"/>
      <point x="39" y="672"/>
      <point x="39" y="520" type="curve" smooth="yes"/>
      <point x="39" y="0" type="line"/>
    </contour>
    <component base="l.ss02" xOffset="369"/>
  </outline>
</glyph>
<glyph name="lslash.ss02" format="2">
  <advance width="368"/>
  <anchor x="184" y="0" name="bottomC"/>
  <anchor x="182" y="700" name="top"/>
  <anchor x="280" y="10" name="ogonek"/>
  <anchor x="350" y="700" name="topright"/>
  <anchor x="182" y="0" name="bottom"/>
  <outline>
    <contour>
      <point x="193" y="279" type="line"/>
      <point x="369" y="368" type="line"/>
      <point x="369" y="511" type="line"/>
      <point x="162" y="373" type="line"/>
      <point x="-3" y="293" type="line"/>
      <point x="-3" y="150" type="line"/>
    </contour>
    <component base="l.ss02" xOffset="30"/>
  </outline>
</glyph>
<glyph name="nine.tf" format="2">
  <advance width="604"/>
  <outline>
    <contour>
      <point x="24" y="440" type="curve" smooth="yes"/>
      <point x="24" y="303"/>
      <point x="115" y="227"/>
      <point x="234" y="232" type="curve" smooth="yes"/>
      <point x="312" y="235"/>
      <point x="348" y="260"/>
      <point x="366" y="295" type="curve"/>
      <point x="369" y="295" type="line"/>
      <point x="369" y="286"/>
      <point x="369" y="280"/>
      <point x="369" y="274" type="curve" smooth="yes"/>
      <point x="369" y="192"/>
      <point x="345" y="157"/>
      <point x="298" y="157" type="curve" smooth="yes"/>
      <point x="264" y="157"/>
      <point x="247" y="170"/>
      <point x="241" y="204" type="curve"/>
      <point x="33" y="131" type="line"/>
      <point x="73" y="33"/>
      <point x="160" y="-10"/>
      <point x="286" y="-10" type="curve" smooth="yes"/>
      <point x="470" y="-10"/>
      <point x="574" y="78"/>
      <point x="574" y="324" type="curve" smooth="yes"/>
      <point x="574" y="567"/>
      <point x="467" y="670"/>
      <point x="292" y="670" type="curve" smooth="yes"/>
      <point x="121" y="670"/>
      <point x="24" y="581"/>
    </contour>
    <contour>
      <point x="343" y="441" type="curve" smooth="yes"/>
      <point x="343" y="405"/>
      <point x="324" y="385"/>
      <point x="287" y="385" type="curve" smooth="yes"/>
      <point x="250" y="385"/>
      <point x="231" y="405"/>
      <point x="231" y="441" type="curve" smooth="yes"/>
      <point x="231" y="477"/>
      <point x="250" y="497"/>
      <point x="287" y="497" type="curve" smooth="yes"/>
      <point x="324" y="497"/>
      <point x="343" y="477"/>
    </contour>
  </outline>
</glyph>
<glyph name="r.sc" format="2">
  <advance width="640"/>
  <anchor x="526" y="0" name="bottomC"/>
  <anchor x="316" y="560" name="top"/>
  <anchor x="642" y="0" name="ogonek"/>
  <anchor x="338" y="0" name="bottom"/>
  <outline>
    <contour>
      <point x="198" y="560" type="line"/>
      <point x="198" y="415" type="line"/>
      <point x="336" y="415" type="line" smooth="yes"/>
      <point x="376" y="415"/>
      <point x="395" y="397"/>
      <point x="395" y="359" type="curve" smooth="yes"/>
      <point x="395" y="321"/>
      <point x="376" y="303"/>
      <point x="336" y="303" type="curve" smooth="yes"/>
      <point x="198" y="303" type="line"/>
      <point x="198" y="172" type="line"/>
      <point x="371" y="172" type="line" smooth="yes"/>
      <point x="529" y="172"/>
      <point x="619" y="240"/>
      <point x="619" y="365" type="curve" smooth="yes"/>
      <point x="619" y="492"/>
      <point x="529" y="560"/>
      <point x="371" y="560" type="curve" smooth="yes"/>
    </contour>
    <contour>
      <point x="53" y="560" type="line"/>
      <point x="53" y="0" type="line"/>
      <point x="278" y="0" type="line"/>
      <point x="278" y="560" type="line"/>
    </contour>
    <contour>
      <point x="296" y="232" type="line"/>
      <point x="399" y="0" type="line"/>
      <point x="642" y="0" type="line"/>
      <point x="457" y="292" type="line"/>
    </contour>
  </outline>
</glyph>
<glyph name="r.swsh" format="2">
  <advance width="684"/>
  <anchor x="154" y="0" name="bottomC"/>
  <anchor x="302" y="500" name="top"/>
  <anchor x="269" y="0" name="ogonek"/>
  <anchor x="142" y="0" name="bottom"/>
  <outline>
    <contour>
      <point x="684" y="413" type="line"/>
      <point x="556" y="431"/>
      <point x="545" y="510"/>
      <point x="419" y="510" type="curve" smooth="yes"/>
      <point x="325" y="510"/>
      <point x="237" y="456"/>
      <point x="237" y="240" type="curve"/>
      <point x="269" y="220" type="line"/>
      <point x="269" y="265"/>
      <point x="295" y="329"/>
      <point x="383" y="329" type="curve" smooth="yes"/>
      <point x="451" y="329"/>
      <point x="486" y="269"/>
      <point x="582" y="251" type="curve"/>
    </contour>
    <contour>
      <point x="269" y="0" type="line"/>
      <point x="269" y="281" type="line"/>
      <point x="254" y="307" type="line"/>
      <point x="246" y="500" type="line"/>
      <point x="39" y="500" type="line"/>
      <point x="39" y="0" type="line"/>
    </contour>
  </outline>
</glyph>
<glyph name="seven.tf" format="2">
  <advance width="604"/>
  <outline>
    <contour>
      <point x="28" y="485" type="line"/>
      <point x="474" y="485" type="line"/>
      <point x="431" y="547" type="line"/>
      <point x="247" y="390"/>
      <point x="159" y="244"/>
      <point x="159" y="0" type="curve"/>
      <point x="390" y="0" type="line"/>
      <point x="390" y="246"/>
      <point x="424" y="346"/>
      <point x="573" y="506" type="curve"/>
      <point x="573" y="660" type="line"/>
      <point x="28" y="660" type="line"/>
    </contour>
  </outline>
</glyph>
<glyph name="swash_bttmleft" format="2">
  <advance width="439"/>
  <outline>
    <contour>
      <point x="439" y="139" type="curve" smooth="yes"/>
      <point x="439" y="202" type="line"/>
      <point x="235" y="202" type="line"/>
      <point x="235" y="125" type="line" smooth="yes"/>
      <point x="235" y="77"/>
      <point x="207" y="56"/>
      <point x="152" y="56" type="curve" smooth="yes"/>
      <point x="104" y="56"/>
      <point x="67" y="77"/>
      <point x="42" y="118" type="curve"/>
      <point x="-24" y="-27" type="line"/>
      <point x="24" y="-90"/>
      <point x="86" y="-110"/>
      <point x="185" y="-110" type="curve" smooth="yes"/>
      <point x="337" y="-110"/>
      <point x="439" y="-46"/>
    </contour>
  </outline>
</glyph>
<glyph name="three.sc" format="2">
  <advance width="570"/>
  <outline>
    <contour>
      <point x="29" y="408" type="curve"/>
      <point x="223" y="354" type="line"/>
      <point x="220" y="390"/>
      <point x="238" y="410"/>
      <point x="271" y="410" type="curve" smooth="yes"/>
      <point x="304" y="410"/>
      <point x="313" y="392"/>
      <point x="313" y="377" type="curve" smooth="yes"/>
      <point x="313" y="350"/>
      <point x="299" y="335"/>
      <point x="265" y="335" type="curve" smooth="yes"/>
      <point x="228" y="335" type="line"/>
      <point x="228" y="219" type="line"/>
      <point x="282" y="219" type="line" smooth="yes"/>
      <point x="310" y="219"/>
      <point x="324" y="212"/>
      <point x="324" y="188" type="curve" smooth="yes"/>
      <point x="324" y="164"/>
      <point x="305" y="150"/>
      <point x="277" y="150" type="curve" smooth="yes"/>
      <point x="233" y="150"/>
      <point x="216" y="166"/>
      <point x="217" y="211" type="curve"/>
      <point x="14" y="138" type="line"/>
      <point x="51" y="26"/>
      <point x="142" y="-8"/>
      <point x="292" y="-8" type="curve" smooth="yes"/>
      <point x="432" y="-8"/>
      <point x="538" y="59"/>
      <point x="538" y="160" type="curve" smooth="yes"/>
      <point x="538" y="264"/>
      <point x="448" y="283"/>
      <point x="415" y="280" type="curve"/>
      <point x="415" y="283" type="line"/>
      <point x="448" y="283"/>
      <point x="527" y="297"/>
      <point x="527" y="407" type="curve" smooth="yes"/>
      <point x="527" y="494"/>
      <point x="445" y="568"/>
      <point x="289" y="568" type="curve" smooth="yes"/>
      <point x="153" y="568"/>
      <point x="36" y="516"/>
    </contour>
  </outline>
</glyph>
<glyph name="u.sc" format="2">
  <advance width="663"/>
  <anchor x="332" y="0" name="bottomC"/>
  <anchor x="332" y="560" name="top"/>
  <anchor x="482" y="16" name="ogonek"/>
  <anchor x="332" y="0" name="bottom"/>
  <outline>
    <contour>
      <point x="393" y="560" type="line"/>
      <point x="393" y="235" type="line" smooth="yes"/>
      <point x="393" y="185"/>
      <point x="375" y="162"/>
      <point x="332" y="162" type="curve" smooth="yes"/>
      <point x="289" y="162"/>
      <point x="271" y="185"/>
      <point x="271" y="235" type="curve" smooth="yes"/>
      <point x="271" y="560" type="line"/>
      <point x="41" y="560" type="line"/>
      <point x="41" y="248" type="line" smooth="yes"/>
      <point x="41" y="82"/>
      <point x="131" y="-8"/>
      <point x="332" y="-8" type="curve" smooth="yes"/>
      <point x="532" y="-8"/>
      <point x="622" y="82"/>
      <point x="622" y="248" type="curve" smooth="yes"/>
      <point x="622" y="560" type="line"/>
    </contour>
  </outline>
</glyph>
<glyph name="uni20BD.tf" format="2">
  <advance width="604"/>
  <outline>
    <contour>
      <point x="224" y="660" type="line"/>
      <point x="224" y="498" type="line"/>
      <point x="321" y="498" type="line" smooth="yes"/>
      <point x="358" y="498"/>
      <point x="377" y="478"/>
      <point x="377" y="432" type="curve" smooth="yes"/>
      <point x="377" y="389"/>
      <point x="358" y="366"/>
      <point x="321" y="366" type="curve" smooth="yes"/>
      <point x="16" y="366" type="line"/>
      <point x="16" y="273" type="line"/>
      <point x="336" y="273" type="line" smooth="yes"/>
      <point x="514" y="273"/>
      <point x="598" y="332"/>
      <point x="598" y="468" type="curve" smooth="yes"/>
      <point x="598" y="583"/>
      <point x="514" y="660"/>
      <point x="336" y="660" type="curve" smooth="yes"/>
    </contour>
    <contour>
      <point x="90" y="660" type="line"/>
      <point x="90" y="0" type="line"/>
      <point x="308" y="0" type="line"/>
      <point x="308" y="660" type="line"/>
    </contour>
    <contour>
      <point x="439" y="217" type="line"/>
      <point x="16" y="217" type="line"/>
      <point x="16" y="129" type="line"/>
      <point x="439" y="129" type="line"/>
    </contour>
  </outline>
</glyph>
<glyph name="v.sc" format="2">
  <advance width="667"/>
  <anchor x="334" y="0" name="bottomC"/>
  <anchor x="334" y="560" name="top"/>
  <anchor x="471" y="0" name="ogonek"/>
  <anchor x="334" y="0" name="bottom"/>
  <outline>
    <contour>
      <point x="443" y="560" type="line"/>
      <point x="380" y="338" type="line"/>
      <point x="341" y="176" type="line"/>
      <point x="339" y="176" type="line"/>
      <point x="298" y="339" type="line"/>
      <point x="237" y="560" type="line"/>
      <point x="-9" y="560" type="line"/>
      <point x="197" y="0" type="line"/>
      <point x="471" y="0" type="line"/>
      <point x="676" y="560" type="line"/>
    </contour>
  </outline>
</glyph>
<glyph name="whiteCircle.case" format="2">
  <advance width="820"/>
  <outline>
    <contour>
      <point x="758" y="330" type="curve" smooth="yes"/>
      <point x="758" y="524"/>
      <point x="609" y="670"/>
      <point x="410" y="670" type="curve" smooth="yes"/>
      <point x="211" y="670"/>
      <point x="62" y="524"/>
      <point x="62" y="330" type="curve" smooth="yes"/>
      <point x="62" y="136"/>
      <point x="211" y="-10"/>
      <point x="410" y="-10" type="curve" smooth="yes"/>
      <point x="609" y="-10"/>
      <point x="758" y="136"/>
    </contour>
    <contour>
      <point x="217" y="330" type="curve" smooth="yes"/>
      <point x="217" y="448"/>
      <point x="297" y="530"/>
      <point x="410" y="530" type="curve" smooth="yes"/>
      <point x="523" y="530"/>
      <point x="603" y="448"/>
      <point x="603" y="330" type="curve" smooth="yes"/>
      <point x="603" y="212"/>
      <point x="523" y="130"/>
      <point x="410" y="130" type="curve" smooth="yes"/>
      <point x="297" y="130"/>
      <point x="217" y="212"/>
    </contour>
  </outline>
</glyph>
<glyph name="whiteSmallSquare.case" format="2">
  <advance width="820"/>
  <outline>
    <contour>
      <point x="744" y="0" type="line"/>
      <point x="744" y="660" type="line"/>
      <point x="76" y="660" type="line"/>
      <point x="76" y="0" type="line"/>
    </contour>
    <contour>
      <point x="223" y="521" type="line"/>
      <point x="597" y="521" type="line"/>
      <point x="597" y="139" type="line"/>
      <point x="223" y="139" type="line"/>
    </contour>
  </outline>
</glyph>
<glyph name="x.sc" format="2">
  <advance width="629"/>
  <anchor x="638" y="0" name="bottomC"/>
  <anchor x="315" y="560" name="top"/>
  <anchor x="638" y="0" name="ogonek"/>
  <anchor x="315" y="0" name="bottom"/>
  <outline>
    <contour>
      <point x="224" y="0" type="line"/>
      <point x="343" y="209" type="line"/>
      <point x="395" y="234" type="line"/>
      <point x="631" y="560" type="line"/>
      <point x="401" y="560" type="line"/>
      <point x="282" y="351" type="line"/>
      <point x="230" y="326" type="line"/>
      <point x="-6" y="0" type="line"/>
    </contour>
    <contour>
      <point x="633" y="0" type="line"/>
      <point x="398" y="329" type="line"/>
      <point x="379" y="348" type="line"/>
      <point x="252" y="560" type="line"/>
      <point x="-8" y="560" type="line"/>
      <point x="227" y="231" type="line"/>
      <point x="246" y="212" type="line"/>
      <point x="373" y="0" type="line"/>
    </contour>
  </outline>
</glyph>
<glyph name="zero.osf" format="2">
  <advance width="628"/>
  <outline>
    <contour>
      <point x="25" y="280" type="curve" smooth="yes"/>
      <point x="25" y="86"/>
      <point x="120" y="-10"/>
      <point x="314" y="-10" type="curve" smooth="yes"/>
      <point x="508" y="-10"/>
      <point x="603" y="86"/>
      <point x="603" y="280" type="curve" smooth="yes"/>
      <point x="603" y="474"/>
      <point x="508" y="570"/>
      <point x="314" y="570" type="curve" smooth="yes"/>
      <point x="120" y="570"/>
      <point x="25" y="474"/>
    </contour>
    <contour>
      <point x="377" y="280" type="curve" smooth="yes"/>
      <point x="377" y="179"/>
      <point x="361" y="144"/>
      <point x="314" y="144" type="curve" smooth="yes"/>
      <point x="267" y="144"/>
      <point x="251" y="179"/>
      <point x="251" y="280" type="curve" smooth="yes"/>
      <point x="251" y="381"/>
      <point x="267" y="416"/>
      <point x="314" y="416" type="curve" smooth="yes"/>
      <point x="361" y="416"/>
      <point x="377" y="381"/>
    </contour>
  </outline>
</glyph>
